<svg xmlns="http://www.w3.org/2000/svg" viewBox="0 0 512 512" width="512" height="512" role="img" aria-label="404 pin favicon">
  <g transform="translate(-204.4444 94.2222) scale(0.888889)">
    <path d="M510 70 L509 71 L508 71 L507 71 L506 71 L505 71 L504 71 L503 71 L502 72 L501 72 L500 72 L499 72 L498 73 L497 73 L496 73 L495 73 L494 74 L493 74 L492 74 L491 75 L490 75 L489 75 L488 75 L487 76 L486 76 L485 76 L484 77 L483 77 L482 78 L481 78 L480 79 L479 79 L478 80 L477 80 L476 81 L475 81 L474 82 L473 82 L472 83 L471 84 L470 84 L469 85 L468 85 L467 86 L466 87 L465 87 L464 88 L463 89 L462 89 L461 90 L460 91 L459 92 L458 93 L457 94 L456 95 L455 96 L454 97 L453 98 L452 99 L451 100 L450 100 L449 101 L448 102 L447 103 L446 104 L445 105 L445 106 L444 107 L443 108 L442 109 L441 110 L441 111 L440 112 L440 113 L439 114 L438 115 L437 116 L437 117 L436 118 L435 118 L434 118 L433 117 L433 116 L433 115 L432 114 L432 113 L432 112 L431 111 L431 110 L431 109 L431 108 L431 107 L430 106 L430 105 L430 104 L430 103 L429 102 L429 101 L428 100 L428 99 L427 98 L427 97 L426 96 L426 95 L425 94 L424 93 L424 92 L423 91 L422 90 L421 89 L420 88 L419 87 L418 86 L417 85 L416 84 L415 83 L414 82 L413 82 L412 81 L411 80 L410 80 L409 79 L408 79 L407 78 L406 78 L405 77 L404 77 L403 77 L402 76 L401 76 L400 76 L399 75 L398 75 L397 75 L396 74 L395 74 L394 74 L393 74 L392 73 L391 73 L390 73 L389 73 L388 73 L387 73 L386 73 L385 72 L384 72 L383 72 L382 72 L381 72 L380 72 L379 72 L378 72 L377 72 L376 72 L375 72 L374 72 L373 73 L372 73 L371 73 L370 73 L369 73 L368 73 L367 73 L366 73 L365 73 L364 74 L363 74 L362 74 L361 74 L360 75 L359 75 L358 75 L357 76 L356 76 L355 76 L354 76 L353 77 L352 77 L351 78 L350 78 L349 79 L348 79 L347 80 L346 80 L345 81 L344 82 L343 82 L342 83 L341 84 L340 85 L339 86 L338 87 L337 87 L336 88 L335 89 L334 90 L334 91 L333 92 L332 93 L332 94 L331 95 L330 96 L329 97 L328 98 L328 99 L327 100 L326 101 L325 102 L324 103 L324 104 L323 105 L322 106 L322 107 L321 108 L320 109 L319 110 L319 111 L318 112 L317 113 L316 114 L315 115 L315 116 L314 117 L313 118 L312 119 L312 120 L311 121 L310 122 L310 123 L309 124 L308 125 L307 126 L307 127 L306 128 L305 129 L304 130 L303 131 L303 132 L302 133 L301 134 L300 135 L300 136 L299 137 L298 138 L297 139 L297 140 L296 141 L295 142 L295 143 L294 144 L293 145 L292 146 L291 147 L291 148 L290 149 L289 150 L288 151 L288 152 L287 153 L286 154 L286 155 L285 156 L284 157 L283 158 L282 159 L282 160 L281 161 L280 162 L279 163 L279 164 L278 165 L277 166 L277 167 L276 168 L275 169 L275 170 L274 171 L274 172 L273 173 L272 174 L272 175 L271 176 L271 177 L270 178 L270 179 L270 180 L269 181 L269 182 L269 183 L268 184 L268 185 L268 186 L268 187 L267 188 L267 189 L267 190 L267 191 L267 192 L267 193 L266 194 L266 195 L266 196 L266 197 L266 198 L266 199 L266 200 L266 201 L266 202 L266 203 L266 204 L266 205 L267 206 L267 207 L267 208 L267 209 L267 210 L268 211 L268 212 L268 213 L269 214 L269 215 L269 216 L270 217 L270 218 L270 219 L271 220 L271 221 L272 222 L272 223 L273 224 L273 225 L274 226 L275 227 L276 228 L276 229 L277 230 L278 231 L279 232 L280 233 L281 234 L282 235 L283 236 L284 237 L285 237 L286 238 L287 239 L288 239 L289 240 L290 240 L291 241 L292 241 L293 241 L294 242 L295 242 L296 243 L297 243 L298 243 L299 244 L300 244 L301 244 L302 244 L303 245 L304 245 L305 245 L306 245 L307 245 L308 245 L309 245 L310 245 L311 245 L312 245 L313 245 L314 245 L315 246 L316 246 L317 246 L318 246 L319 246 L320 246 L321 246 L322 246 L323 246 L324 246 L325 246 L326 246 L327 246 L328 246 L329 246 L330 246 L331 246 L332 246 L333 245 L334 245 L335 245 L336 245 L337 245 L338 245 L339 246 L340 247 L340 248 L341 249 L341 250 L341 251 L341 252 L342 253 L342 254 L343 255 L343 256 L344 257 L345 258 L345 259 L346 260 L347 261 L347 262 L348 263 L349 264 L350 265 L350 266 L351 266 L352 267 L353 268 L354 269 L355 270 L356 270 L357 271 L358 272 L359 272 L360 273 L361 273 L362 274 L363 274 L364 275 L365 276 L366 276 L367 276 L368 276 L369 277 L370 277 L371 277 L372 278 L373 278 L374 278 L375 278 L376 278 L377 278 L378 279 L379 279 L380 279 L381 279 L382 279 L383 279 L384 279 L385 279 L386 279 L387 279 L388 279 L389 279 L390 279 L391 279 L392 279 L393 278 L394 278 L395 278 L396 278 L397 278 L398 278 L399 278 L400 277 L401 277 L402 277 L403 276 L404 276 L405 276 L406 275 L407 275 L408 274 L409 274 L410 273 L411 273 L412 272 L413 271 L414 271 L415 270 L416 269 L417 269 L418 268 L419 267 L420 266 L421 265 L422 264 L422 263 L423 262 L424 261 L425 260 L425 259 L426 258 L427 257 L427 256 L428 255 L428 254 L429 253 L429 252 L430 251 L430 250 L430 249 L430 248 L431 247 L431 246 L431 245 L431 244 L432 243 L432 242 L432 241 L433 240 L434 240 L435 239 L436 238 L437 238 L438 237 L439 236 L440 235 L441 234 L442 233 L443 232 L444 232 L444 231 L445 230 L446 230 L447 230 L448 231 L449 232 L450 233 L450 234 L451 235 L452 236 L453 237 L454 238 L455 239 L455 240 L456 241 L457 242 L458 243 L459 244 L460 245 L461 246 L462 247 L463 248 L464 249 L464 250 L465 251 L466 252 L467 253 L468 254 L469 255 L470 256 L471 257 L472 258 L473 259 L474 260 L475 261 L476 262 L477 263 L478 264 L479 265 L480 266 L481 267 L482 268 L483 269 L484 270 L485 271 L486 272 L487 273 L488 274 L489 275 L489 276 L490 277 L491 278 L492 279 L493 280 L494 281 L495 282 L496 282 L497 283 L498 284 L499 285 L500 286 L501 287 L502 287 L503 288 L504 289 L505 289 L506 290 L507 290 L508 291 L509 291 L510 292 L511 292 L512 292 L513 293 L514 293 L515 293 L516 293 L517 293 L518 293 L519 294 L520 294 L521 294 L522 294 L523 294 L524 293 L525 293 L526 293 L527 293 L528 293 L529 292 L530 292 L531 292 L532 292 L533 291 L534 291 L535 291 L536 290 L537 290 L538 289 L539 288 L540 288 L541 287 L542 286 L543 285 L544 284 L545 284 L545 283 L546 282 L547 281 L548 280 L549 280 L549 279 L550 278 L551 277 L552 276 L553 275 L554 274 L555 273 L556 272 L557 271 L558 270 L559 269 L560 268 L561 267 L562 266 L563 265 L564 264 L565 263 L566 262 L567 261 L568 260 L569 259 L570 258 L571 257 L571 256 L572 255 L573 255 L573 254 L574 253 L575 252 L576 251 L577 250 L578 249 L579 248 L580 247 L581 246 L582 245 L583 244 L583 243 L584 242 L585 241 L586 240 L587 239 L587 238 L588 237 L589 236 L590 235 L591 234 L592 233 L593 232 L594 232 L595 232 L596 232 L597 233 L598 234 L599 235 L600 236 L601 237 L602 237 L603 238 L604 239 L605 239 L606 240 L607 240 L608 241 L609 241 L610 242 L611 242 L612 242 L613 243 L614 243 L615 243 L616 244 L617 244 L618 244 L619 244 L620 244 L621 245 L622 245 L623 245 L624 245 L625 245 L626 245 L627 245 L628 246 L629 246 L630 246 L631 246 L632 246 L633 246 L634 246 L635 246 L636 246 L637 246 L638 246 L639 246 L640 246 L641 246 L642 246 L643 246 L644 246 L645 246 L646 246 L647 245 L648 245 L649 245 L650 245 L651 245 L652 245 L653 245 L654 245 L655 245 L656 246 L657 247 L657 248 L657 249 L657 250 L658 251 L658 252 L658 253 L659 254 L659 255 L660 256 L661 257 L661 258 L662 259 L663 260 L663 261 L664 262 L665 263 L665 264 L666 265 L667 266 L668 267 L669 268 L670 269 L671 269 L672 270 L673 270 L674 271 L675 272 L676 272 L677 273 L678 273 L679 274 L680 275 L681 275 L682 275 L683 276 L684 276 L685 276 L686 277 L687 277 L688 277 L689 278 L690 278 L691 278 L692 278 L693 278 L694 278 L695 279 L696 279 L697 279 L698 279 L699 279 L700 279 L701 279 L702 279 L703 279 L704 279 L705 279 L706 279 L707 279 L708 279 L709 279 L710 279 L711 278 L712 278 L713 278 L714 278 L715 278 L716 277 L717 277 L718 277 L719 276 L720 276 L721 276 L722 275 L723 275 L724 275 L725 274 L726 274 L727 273 L728 273 L729 272 L730 271 L731 271 L732 270 L733 269 L734 268 L735 267 L736 266 L737 266 L738 265 L739 264 L739 263 L740 262 L741 261 L742 260 L742 259 L743 258 L743 257 L744 256 L744 255 L745 254 L745 253 L746 252 L746 251 L747 250 L747 249 L747 248 L748 247 L748 246 L748 245 L748 244 L748 243 L749 242 L749 241 L750 240 L751 239 L752 238 L753 238 L754 237 L755 236 L756 236 L757 235 L758 234 L759 233 L760 232 L760 231 L761 230 L762 229 L763 228 L763 227 L764 226 L765 225 L765 224 L766 223 L766 222 L767 221 L767 220 L767 219 L768 218 L768 217 L768 216 L769 215 L769 214 L769 213 L769 212 L769 211 L770 210 L770 209 L770 208 L770 207 L770 206 L770 205 L770 204 L770 203 L770 202 L770 201 L770 200 L770 199 L770 198 L770 197 L770 196 L770 195 L770 194 L770 193 L770 192 L769 191 L769 190 L769 189 L769 188 L768 187 L768 186 L768 185 L767 184 L767 183 L766 182 L766 181 L766 180 L765 179 L765 178 L764 177 L763 176 L763 175 L762 174 L761 173 L761 172 L760 171 L759 170 L758 169 L757 168 L756 167 L755 167 L754 166 L753 165 L752 164 L751 163 L750 163 L749 162 L749 161 L749 160 L749 159 L749 158 L749 157 L749 156 L749 155 L749 154 L749 153 L749 152 L749 151 L749 150 L749 149 L749 148 L749 147 L749 146 L749 145 L749 144 L749 143 L749 142 L749 141 L749 140 L749 139 L749 138 L749 137 L749 136 L749 135 L749 134 L749 133 L749 132 L749 131 L749 130 L749 129 L749 128 L749 127 L749 126 L749 125 L749 124 L749 123 L749 122 L749 121 L749 120 L749 119 L749 118 L749 117 L749 116 L749 115 L749 114 L749 113 L748 112 L748 111 L748 110 L748 109 L748 108 L747 107 L747 106 L747 105 L746 104 L746 103 L746 102 L745 101 L745 100 L744 99 L744 98 L743 97 L743 96 L742 95 L742 94 L741 93 L740 92 L740 91 L739 90 L738 89 L737 88 L736 87 L735 86 L734 85 L733 84 L732 83 L731 82 L730 82 L729 81 L728 80 L727 80 L726 79 L725 79 L724 78 L723 78 L722 78 L721 77 L720 77 L719 76 L718 76 L717 76 L716 75 L715 75 L714 75 L713 74 L712 74 L711 74 L710 73 L709 73 L708 73 L707 73 L706 73 L705 73 L704 73 L703 73 L702 73 L701 73 L700 73 L699 73 L698 72 L697 72 L696 72 L695 72 L694 72 L693 72 L692 72 L691 72 L690 72 L689 72 L688 72 L687 73 L686 73 L685 73 L684 73 L683 73 L682 73 L681 73 L680 74 L679 74 L678 74 L677 74 L676 75 L675 75 L674 75 L673 76 L672 76 L671 76 L670 77 L669 77 L668 78 L667 78 L666 78 L665 79 L664 80 L663 80 L662 81 L661 81 L660 82 L659 83 L658 83 L658 84 L657 85 L656 85 L656 86 L655 87 L654 87 L653 88 L652 89 L651 90 L650 91 L649 92 L649 93 L648 94 L647 95 L646 96 L646 97 L645 98 L644 99 L644 100 L643 101 L642 102 L641 103 L640 104 L640 105 L639 106 L638 107 L637 108 L636 109 L636 110 L635 111 L634 112 L633 113 L633 114 L632 115 L631 116 L631 117 L630 118 L629 119 L629 120 L628 121 L627 122 L626 123 L625 124 L624 125 L624 126 L623 127 L622 128 L621 129 L621 130 L620 131 L620 132 L619 133 L618 134 L617 135 L617 136 L616 137 L615 137 L614 137 L613 136 L613 135 L613 134 L612 133 L612 132 L611 131 L611 130 L611 129 L610 128 L610 127 L610 126 L609 125 L609 124 L608 123 L608 122 L607 121 L606 120 L606 119 L605 118 L604 117 L604 116 L603 115 L602 114 L602 113 L601 112 L600 111 L600 110 L599 109 L598 108 L598 107 L597 106 L596 105 L595 104 L594 103 L593 102 L592 101 L591 100 L591 99 L590 99 L589 98 L588 97 L587 96 L586 95 L585 94 L584 93 L583 92 L582 91 L581 90 L580 90 L579 89 L578 88 L577 88 L576 87 L575 86 L574 86 L573 85 L572 84 L571 84 L570 83 L569 83 L568 82 L567 81 L566 81 L565 80 L564 80 L563 79 L562 79 L561 78 L560 78 L559 77 L558 77 L557 77 L556 76 L555 76 L554 76 L553 75 L552 75 L551 75 L550 74 L549 74 L548 74 L547 73 L546 73 L545 73 L544 73 L543 72 L542 72 L541 72 L540 72 L539 71 L538 71 L537 71 L536 71 L535 71 L534 71 L533 71 L532 71 L531 70 L530 70 L529 70 L528 70 L527 70 L526 70 L525 70 L524 70 L523 70 L522 70 L521 70 L520 70 L519 70 L518 70 L517 70 L516 70 L515 70 L514 70 L513 70 L512 70 L511 70 Z
M513 98 L514 97 L515 97 L516 97 L517 97 L518 97 L519 97 L520 97 L521 97 L522 97 L523 97 L524 97 L525 97 L526 97 L527 98 L528 98 L529 98 L530 98 L531 98 L532 98 L533 98 L534 99 L535 99 L536 99 L537 99 L538 99 L539 100 L540 100 L541 100 L542 101 L543 101 L544 101 L545 102 L546 102 L547 102 L548 103 L549 103 L550 104 L551 104 L552 104 L553 105 L554 105 L555 106 L556 107 L557 107 L558 108 L559 108 L560 109 L561 109 L562 110 L563 111 L564 112 L565 113 L566 113 L567 114 L568 115 L569 116 L570 117 L571 118 L572 119 L573 120 L574 121 L575 122 L576 123 L577 124 L577 125 L578 126 L579 127 L579 128 L580 129 L581 130 L581 131 L582 132 L582 133 L583 134 L583 135 L584 136 L584 137 L585 138 L585 139 L586 140 L586 141 L587 142 L587 143 L587 144 L588 145 L588 146 L588 147 L589 148 L589 149 L589 150 L589 151 L590 152 L590 153 L590 154 L590 155 L590 156 L591 157 L591 158 L591 159 L591 160 L591 161 L591 162 L591 163 L591 164 L591 165 L591 166 L591 167 L591 168 L591 169 L591 170 L591 171 L591 172 L591 173 L591 174 L590 175 L590 176 L590 177 L590 178 L590 179 L590 180 L589 181 L589 182 L589 183 L589 184 L588 185 L588 186 L588 187 L587 188 L587 189 L587 190 L586 191 L586 192 L585 193 L585 194 L584 195 L584 196 L583 197 L583 198 L582 199 L582 200 L581 201 L580 202 L580 203 L579 204 L578 205 L578 206 L577 207 L576 208 L576 209 L575 210 L574 211 L574 212 L573 213 L572 214 L571 215 L571 216 L570 217 L569 218 L569 219 L568 220 L567 220 L567 221 L566 222 L565 223 L564 224 L564 225 L563 226 L562 227 L561 228 L560 229 L559 230 L558 231 L557 232 L556 233 L555 234 L554 235 L553 236 L553 237 L552 238 L551 239 L550 240 L549 241 L548 242 L547 243 L546 244 L545 245 L544 246 L543 247 L542 248 L541 249 L540 250 L539 251 L538 252 L537 253 L536 254 L535 255 L534 256 L533 257 L533 258 L532 259 L531 260 L530 261 L529 262 L528 263 L527 263 L526 264 L525 265 L524 266 L523 266 L522 267 L521 267 L520 267 L519 266 L518 266 L517 265 L516 264 L515 263 L514 262 L513 261 L512 260 L511 259 L510 258 L509 257 L508 256 L507 255 L506 254 L505 253 L504 252 L503 251 L502 250 L501 249 L500 248 L499 247 L498 246 L497 245 L496 244 L495 243 L494 242 L493 241 L492 240 L491 239 L491 238 L490 237 L489 236 L488 235 L487 234 L486 233 L485 232 L484 231 L483 230 L482 229 L481 228 L480 227 L479 226 L479 225 L478 224 L477 223 L476 222 L475 221 L474 220 L473 219 L473 218 L472 217 L471 216 L470 215 L470 214 L469 213 L468 212 L467 211 L467 210 L466 209 L465 208 L464 207 L464 206 L463 205 L462 204 L462 203 L461 202 L461 201 L460 200 L460 199 L459 198 L458 197 L458 196 L457 195 L457 194 L456 193 L456 192 L455 191 L455 190 L454 189 L454 188 L454 187 L454 186 L453 185 L453 184 L453 183 L453 182 L452 181 L452 180 L452 179 L452 178 L451 177 L451 176 L451 175 L451 174 L451 173 L451 172 L451 171 L450 170 L450 169 L450 168 L450 167 L450 166 L450 165 L450 164 L450 163 L450 162 L450 161 L450 160 L451 159 L451 158 L451 157 L451 156 L451 155 L451 154 L452 153 L452 152 L452 151 L452 150 L453 149 L453 148 L453 147 L453 146 L454 145 L454 144 L454 143 L455 142 L455 141 L456 140 L456 139 L457 138 L457 137 L458 136 L458 135 L459 134 L459 133 L460 132 L461 131 L461 130 L462 129 L462 128 L463 127 L464 126 L464 125 L465 124 L466 123 L467 122 L468 121 L469 120 L470 119 L471 118 L472 117 L473 116 L474 115 L475 114 L476 113 L477 112 L478 111 L479 111 L480 110 L481 109 L482 109 L483 108 L484 107 L485 107 L486 106 L487 106 L488 105 L489 105 L490 104 L491 104 L492 104 L493 103 L494 103 L495 102 L496 102 L497 102 L498 101 L499 101 L500 101 L501 100 L502 100 L503 99 L504 99 L505 99 L506 99 L507 99 L508 99 L509 98 L510 98 L511 98 L512 98 Z
M685 100 L686 99 L687 99 L688 99 L689 99 L690 99 L691 99 L692 99 L693 99 L694 99 L695 99 L696 99 L697 99 L698 99 L699 99 L700 99 L701 99 L702 99 L703 99 L704 99 L705 99 L706 100 L707 100 L708 100 L709 101 L710 101 L711 102 L712 102 L713 103 L714 104 L715 104 L716 105 L717 106 L718 107 L719 108 L720 109 L720 110 L721 111 L721 112 L721 113 L721 114 L722 115 L722 116 L722 117 L722 118 L722 119 L722 120 L722 121 L722 122 L722 123 L722 124 L722 125 L722 126 L723 127 L723 128 L723 129 L723 130 L723 131 L723 132 L723 133 L723 134 L723 135 L723 136 L723 137 L723 138 L723 139 L723 140 L723 141 L723 142 L723 143 L723 144 L723 145 L723 146 L723 147 L723 148 L723 149 L723 150 L723 151 L723 152 L723 153 L723 154 L723 155 L723 156 L723 157 L723 158 L723 159 L723 160 L723 161 L723 162 L723 163 L723 164 L723 165 L723 166 L723 167 L723 168 L723 169 L723 170 L723 171 L723 172 L723 173 L723 174 L723 175 L723 176 L723 177 L723 178 L723 179 L723 180 L723 181 L723 182 L723 183 L723 184 L724 184 L725 184 L726 184 L727 184 L728 184 L729 184 L730 184 L731 184 L732 184 L733 185 L734 185 L735 186 L736 186 L737 187 L738 188 L739 189 L740 189 L741 190 L741 191 L742 192 L742 193 L742 194 L743 195 L743 196 L743 197 L743 198 L743 199 L743 200 L743 201 L743 202 L743 203 L743 204 L743 205 L743 206 L743 207 L743 208 L742 209 L742 210 L741 211 L741 212 L740 213 L740 214 L739 215 L738 216 L737 217 L736 217 L735 218 L734 218 L733 218 L732 219 L731 219 L730 219 L729 219 L728 219 L727 219 L726 219 L725 219 L724 219 L723 220 L723 221 L723 222 L723 223 L723 224 L723 225 L723 226 L723 227 L723 228 L723 229 L723 230 L723 231 L723 232 L723 233 L723 234 L722 235 L722 236 L722 237 L722 238 L722 239 L722 240 L721 241 L721 242 L720 243 L720 244 L720 245 L719 246 L718 247 L717 248 L716 249 L715 249 L714 250 L713 250 L712 251 L711 251 L710 251 L709 252 L708 252 L707 252 L706 252 L705 252 L704 252 L703 252 L702 252 L701 252 L700 252 L699 252 L698 252 L697 252 L696 252 L695 252 L694 252 L693 251 L692 251 L691 251 L690 250 L689 250 L688 249 L687 248 L686 247 L685 246 L685 245 L684 244 L684 243 L683 242 L683 241 L682 240 L682 239 L682 238 L682 237 L682 236 L681 235 L681 234 L681 233 L681 232 L681 231 L681 230 L681 229 L681 228 L681 227 L681 226 L681 225 L681 224 L681 223 L681 222 L681 221 L681 220 L680 219 L679 219 L678 219 L677 219 L676 219 L675 219 L674 219 L673 219 L672 219 L671 219 L670 219 L669 219 L668 219 L667 219 L666 219 L665 219 L664 219 L663 219 L662 219 L661 219 L660 219 L659 219 L658 219 L657 219 L656 219 L655 219 L654 219 L653 219 L652 219 L651 219 L650 219 L649 219 L648 219 L647 219 L646 219 L645 219 L644 219 L643 219 L642 219 L641 219 L640 219 L639 219 L638 219 L637 219 L636 219 L635 219 L634 219 L633 219 L632 219 L631 219 L630 219 L629 219 L628 219 L627 219 L626 219 L625 219 L624 218 L623 218 L622 218 L621 218 L620 217 L619 217 L618 216 L617 215 L616 214 L615 213 L614 212 L614 211 L613 210 L612 209 L612 208 L611 207 L611 206 L611 205 L611 204 L610 203 L610 202 L610 201 L610 200 L610 199 L610 198 L610 197 L610 196 L611 195 L611 194 L611 193 L611 192 L611 191 L611 190 L612 189 L612 188 L613 187 L613 186 L614 185 L614 184 L615 183 L616 182 L616 181 L617 180 L618 179 L618 178 L619 177 L620 176 L621 175 L621 174 L622 173 L623 172 L624 171 L624 170 L625 169 L626 168 L627 167 L628 166 L628 165 L629 164 L629 163 L630 162 L631 161 L632 160 L632 159 L633 158 L634 157 L635 156 L636 155 L637 154 L637 153 L638 152 L639 151 L639 150 L640 149 L641 148 L641 147 L642 146 L643 145 L644 144 L645 143 L645 142 L646 141 L647 140 L648 139 L649 138 L649 137 L650 136 L651 135 L651 134 L652 133 L653 132 L654 131 L654 130 L655 129 L656 128 L656 127 L657 126 L658 125 L659 124 L660 123 L660 122 L661 121 L662 120 L663 119 L664 118 L664 117 L665 116 L666 115 L666 114 L667 113 L668 112 L669 111 L669 110 L670 109 L671 108 L672 107 L673 106 L674 105 L675 105 L676 104 L677 103 L678 103 L679 102 L680 102 L681 101 L682 101 L683 100 L684 100 Z
M369 100 L370 99 L371 99 L372 99 L373 99 L374 99 L375 99 L376 99 L377 99 L378 99 L379 99 L380 99 L381 99 L382 99 L383 99 L384 99 L385 99 L386 99 L387 99 L388 99 L389 100 L390 100 L391 100 L392 100 L393 101 L394 101 L395 102 L396 102 L397 103 L398 104 L399 105 L400 106 L401 107 L402 108 L403 109 L403 110 L404 111 L404 112 L405 113 L405 114 L405 115 L405 116 L406 117 L406 118 L406 119 L406 120 L406 121 L406 122 L406 123 L406 124 L406 125 L406 126 L406 127 L406 128 L406 129 L406 130 L406 131 L406 132 L406 133 L406 134 L406 135 L406 136 L406 137 L406 138 L406 139 L406 140 L406 141 L406 142 L406 143 L406 144 L406 145 L406 146 L406 147 L406 148 L406 149 L406 150 L406 151 L406 152 L406 153 L406 154 L406 155 L406 156 L406 157 L406 158 L406 159 L406 160 L406 161 L406 162 L406 163 L406 164 L406 165 L406 166 L406 167 L406 168 L406 169 L406 170 L406 171 L406 172 L406 173 L406 174 L406 175 L406 176 L406 177 L406 178 L406 179 L406 180 L406 181 L406 182 L406 183 L407 184 L408 184 L409 184 L410 184 L411 184 L412 184 L413 184 L414 185 L415 185 L416 185 L417 185 L418 185 L419 186 L420 186 L421 187 L422 188 L423 189 L424 190 L424 191 L425 192 L425 193 L426 194 L426 195 L426 196 L426 197 L427 198 L427 199 L427 200 L427 201 L427 202 L427 203 L427 204 L426 205 L426 206 L426 207 L426 208 L425 209 L425 210 L425 211 L425 212 L424 213 L423 214 L422 215 L421 216 L420 217 L419 217 L418 218 L417 218 L416 219 L415 219 L414 219 L413 219 L412 219 L411 219 L410 219 L409 219 L408 219 L407 219 L406 220 L406 221 L406 222 L406 223 L406 224 L406 225 L406 226 L406 227 L406 228 L406 229 L406 230 L406 231 L406 232 L406 233 L406 234 L406 235 L406 236 L406 237 L405 238 L405 239 L405 240 L405 241 L404 242 L404 243 L403 244 L403 245 L402 246 L401 247 L400 248 L399 249 L398 250 L397 250 L396 251 L395 251 L394 251 L393 252 L392 252 L391 252 L390 252 L389 252 L388 252 L387 252 L386 252 L385 252 L384 252 L383 252 L382 252 L381 252 L380 252 L379 252 L378 252 L377 252 L376 251 L375 251 L374 250 L373 250 L372 249 L371 248 L370 247 L369 246 L368 245 L367 244 L367 243 L366 242 L366 241 L365 240 L365 239 L365 238 L365 237 L365 236 L365 235 L365 234 L365 233 L365 232 L365 231 L365 230 L365 229 L365 228 L365 227 L365 226 L365 225 L365 224 L365 223 L365 222 L365 221 L364 220 L364 219 L363 219 L362 219 L361 219 L360 219 L359 219 L358 219 L357 219 L356 219 L355 219 L354 219 L353 219 L352 219 L351 219 L350 219 L349 219 L348 219 L347 219 L346 219 L345 219 L344 219 L343 219 L342 219 L341 219 L340 219 L339 219 L338 219 L337 219 L336 219 L335 219 L334 219 L333 219 L332 219 L331 219 L330 219 L329 219 L328 219 L327 219 L326 219 L325 219 L324 219 L323 219 L322 219 L321 219 L320 219 L319 219 L318 219 L317 219 L316 219 L315 219 L314 219 L313 219 L312 219 L311 219 L310 219 L309 219 L308 219 L307 218 L306 218 L305 218 L304 218 L303 217 L302 217 L301 216 L300 215 L299 214 L298 213 L297 212 L297 211 L296 210 L296 209 L295 208 L295 207 L294 206 L294 205 L294 204 L294 203 L294 202 L293 201 L293 200 L293 199 L293 198 L293 197 L293 196 L294 195 L294 194 L294 193 L294 192 L294 191 L295 190 L295 189 L296 188 L296 187 L297 186 L297 185 L298 184 L298 183 L299 182 L299 181 L300 180 L301 179 L302 178 L302 177 L303 176 L304 175 L305 174 L306 173 L306 172 L307 171 L308 170 L309 169 L309 168 L310 167 L311 166 L311 165 L312 164 L313 163 L314 162 L314 161 L315 160 L316 159 L316 158 L317 157 L318 156 L319 155 L319 154 L320 153 L321 152 L322 151 L323 150 L323 149 L324 148 L325 147 L326 146 L326 145 L327 144 L328 143 L328 142 L329 141 L330 140 L331 139 L332 138 L333 137 L333 136 L334 135 L335 134 L335 133 L336 132 L337 131 L338 130 L338 129 L339 128 L340 127 L341 126 L342 125 L342 124 L343 123 L344 122 L344 121 L345 120 L346 119 L347 118 L347 117 L348 116 L349 115 L350 114 L351 113 L351 112 L352 111 L353 110 L354 109 L355 108 L356 107 L356 106 L357 105 L358 105 L359 104 L360 103 L361 103 L362 102 L363 102 L364 101 L365 101 L366 100 L367 100 L368 100 Z
M514 137 L513 138 L512 138 L511 138 L510 139 L509 139 L508 140 L507 141 L506 142 L505 142 L504 143 L503 144 L502 145 L501 146 L500 147 L500 148 L499 149 L499 150 L498 151 L498 152 L498 153 L497 154 L497 155 L497 156 L497 157 L496 158 L496 159 L496 160 L496 161 L496 162 L496 163 L497 164 L497 165 L497 166 L498 167 L498 168 L498 169 L499 170 L499 171 L499 172 L500 173 L501 174 L501 175 L502 176 L503 177 L504 178 L505 178 L506 179 L507 180 L508 180 L509 181 L510 182 L511 182 L512 183 L513 183 L514 183 L515 183 L516 184 L517 184 L518 184 L519 184 L520 184 L521 184 L522 184 L523 184 L524 184 L525 184 L526 183 L527 183 L528 183 L529 182 L530 182 L531 182 L532 181 L533 180 L534 180 L535 179 L536 178 L537 177 L538 176 L539 175 L540 174 L541 173 L541 172 L542 171 L542 170 L542 169 L543 168 L543 167 L543 166 L543 165 L544 164 L544 163 L544 162 L544 161 L544 160 L544 159 L544 158 L544 157 L544 156 L543 155 L543 154 L543 153 L543 152 L542 151 L542 150 L541 149 L541 148 L540 147 L539 146 L539 145 L538 144 L537 144 L536 143 L536 142 L535 142 L534 141 L533 140 L532 140 L531 139 L530 139 L529 138 L528 138 L527 138 L526 137 L525 137 L524 137 L523 137 L522 137 L521 137 L520 137 L519 137 L518 137 L517 137 L516 137 L515 137 Z
M363 147 L362 148 L362 149 L361 150 L360 151 L360 152 L359 153 L358 154 L358 155 L357 156 L356 157 L355 158 L355 159 L354 160 L353 161 L352 162 L352 163 L351 164 L350 165 L349 166 L349 167 L348 168 L347 169 L347 170 L346 171 L345 172 L345 173 L344 174 L343 175 L342 176 L341 177 L341 178 L340 179 L339 180 L338 181 L338 182 L338 183 L338 184 L339 184 L340 184 L341 184 L342 184 L343 184 L344 185 L345 185 L346 185 L347 185 L348 185 L349 185 L350 185 L351 184 L352 184 L353 184 L354 184 L355 184 L356 184 L357 184 L358 184 L359 184 L360 184 L361 184 L362 184 L363 184 L364 184 L365 183 L365 182 L365 181 L365 180 L365 179 L365 178 L365 177 L365 176 L365 175 L365 174 L365 173 L365 172 L365 171 L365 170 L365 169 L365 168 L365 167 L365 166 L365 165 L365 164 L365 163 L365 162 L365 161 L365 160 L365 159 L365 158 L365 157 L365 156 L365 155 L365 154 L365 153 L365 152 L365 151 L365 150 L365 149 L365 148 L364 147 Z
M680 147 L679 148 L678 149 L678 150 L677 151 L676 152 L676 153 L675 154 L674 155 L674 156 L673 157 L672 158 L671 159 L670 160 L670 161 L669 162 L668 163 L667 164 L667 165 L666 166 L665 167 L665 168 L664 169 L663 170 L663 171 L662 172 L661 173 L660 174 L660 175 L659 176 L658 177 L657 178 L657 179 L656 180 L656 181 L655 182 L654 183 L654 184 L655 184 L656 184 L657 184 L658 184 L659 184 L660 184 L661 184 L662 184 L663 184 L664 184 L665 184 L666 184 L667 184 L668 184 L669 184 L670 184 L671 184 L672 185 L673 185 L674 185 L675 185 L676 185 L677 185 L678 184 L679 184 L680 184 L681 184 L681 183 L681 182 L681 181 L681 180 L681 179 L681 178 L681 177 L681 176 L681 175 L681 174 L681 173 L681 172 L681 171 L681 170 L681 169 L681 168 L681 167 L681 166 L681 165 L681 164 L681 163 L681 162 L681 161 L681 160 L681 159 L681 158 L681 157 L681 156 L681 155 L681 154 L681 153 L681 152 L682 151 L682 150 L682 149 L681 148 L681 147 Z" fill="#F71924" fill-rule="evenodd"/>
  </g>
</svg>
