<?xml version="1.0" encoding="UTF-8"?>
<svg xmlns="http://www.w3.org/2000/svg" width="2172" height="724" viewBox="0 0 2172 724" role="img" aria-label="NOTFOUND logo">
  <title>NOTFOUND logo</title>
  <path d="M 295.0 278.0 L 295.0 451.0 L 313.0 483.0 L 383.0 494.0 L 422.0 469.0 L 453.0 492.0 L 502.0 493.0 L 528.0 483.0 L 547.0 458.0 L 614.0 531.0 L 639.0 541.0 L 678.0 524.0 L 761.0 423.0 L 770.0 469.0 L 806.0 493.0 L 866.0 489.0 L 893.0 458.0 L 925.0 490.0 L 988.0 492.0 L 1013.0 478.0 L 1026.0 440.0 L 1055.0 434.0 L 1101.0 478.0 L 1155.0 496.0 L 1219.0 488.0 L 1272.0 452.0 L 1317.0 485.0 L 1364.0 496.0 L 1419.0 490.0 L 1453.0 473.0 L 1484.0 492.0 L 1537.0 493.0 L 1572.0 469.0 L 1610.0 493.0 L 1777.0 492.0 L 1827.0 478.0 L 1865.0 450.0 L 1887.0 416.0 L 1897.0 370.0 L 1892.0 324.0 L 1870.0 281.0 L 1822.0 246.0 L 1774.0 235.0 L 1608.0 235.0 L 1573.0 256.0 L 1541.0 235.0 L 1406.0 235.0 L 1378.0 246.0 L 1354.0 234.0 L 1298.0 233.0 L 1256.0 258.0 L 1209.0 233.0 L 1161.0 227.0 L 1082.0 258.0 L 1059.0 238.0 L 1014.0 233.0 L 919.0 241.0 L 772.0 233.0 L 740.0 247.0 L 687.0 214.0 L 630.0 207.0 L 572.0 226.0 L 539.0 253.0 L 506.0 235.0 L 451.0 236.0 L 424.0 256.0 L 392.0 235.0 L 338.0 235.0 L 313.0 245.0 Z
    M 635.0 247.0 L 659.0 248.0 L 672.0 251.0 L 692.0 259.0 L 707.0 269.0 L 720.0 281.0 L 734.0 301.0 L 742.0 321.0 L 745.0 337.0 L 745.0 357.0 L 742.0 371.0 L 737.0 385.0 L 723.0 411.0 L 688.0 457.0 L 644.0 501.0 L 640.0 501.0 L 591.0 451.0 L 569.0 423.0 L 549.0 389.0 L 540.0 358.0 L 540.0 338.0 L 545.0 316.0 L 551.0 302.0 L 561.0 287.0 L 579.0 269.0 L 596.0 258.0 L 617.0 250.0 Z
    M 1151.0 269.0 L 1188.0 269.0 L 1209.0 275.0 L 1221.0 281.0 L 1231.0 288.0 L 1249.0 307.0 L 1259.0 325.0 L 1265.0 344.0 L 1267.0 362.0 L 1266.0 377.0 L 1259.0 401.0 L 1247.0 421.0 L 1228.0 439.0 L 1213.0 448.0 L 1191.0 455.0 L 1156.0 456.0 L 1133.0 450.0 L 1117.0 442.0 L 1106.0 434.0 L 1092.0 419.0 L 1083.0 404.0 L 1076.0 384.0 L 1074.0 371.0 L 1075.0 349.0 L 1078.0 335.0 L 1086.0 316.0 L 1095.0 303.0 L 1113.0 286.0 L 1130.0 276.0 Z
    M 1696.0 275.0 L 1772.0 274.0 L 1790.0 277.0 L 1808.0 283.0 L 1821.0 290.0 L 1838.0 305.0 L 1847.0 318.0 L 1854.0 334.0 L 1858.0 354.0 L 1858.0 373.0 L 1852.0 397.0 L 1845.0 411.0 L 1826.0 432.0 L 1808.0 443.0 L 1777.0 452.0 L 1697.0 453.0 L 1692.0 449.0 L 1691.0 281.0 Z
    M 338.0 275.0 L 383.0 274.0 L 387.0 276.0 L 454.0 363.0 L 455.0 278.0 L 460.0 274.0 L 502.0 274.0 L 507.0 278.0 L 509.0 283.0 L 509.0 444.0 L 504.0 452.0 L 460.0 453.0 L 388.0 363.0 L 387.0 449.0 L 382.0 453.0 L 339.0 453.0 L 334.0 448.0 L 333.0 282.0 Z
    M 1490.0 275.0 L 1537.0 275.0 L 1605.0 363.0 L 1606.0 279.0 L 1612.0 274.0 L 1653.0 274.0 L 1660.0 282.0 L 1660.0 445.0 L 1655.0 452.0 L 1610.0 452.0 L 1541.0 364.0 L 1540.0 447.0 L 1534.0 453.0 L 1492.0 453.0 L 1486.0 448.0 L 1485.0 282.0 Z
    M 1295.0 275.0 L 1341.0 274.0 L 1346.0 279.0 L 1348.0 387.0 L 1356.0 400.0 L 1372.0 406.0 L 1382.0 405.0 L 1394.0 399.0 L 1402.0 381.0 L 1403.0 278.0 L 1408.0 274.0 L 1451.0 274.0 L 1457.0 279.0 L 1457.0 392.0 L 1452.0 411.0 L 1446.0 423.0 L 1434.0 437.0 L 1423.0 445.0 L 1404.0 453.0 L 1388.0 456.0 L 1362.0 456.0 L 1339.0 451.0 L 1325.0 445.0 L 1303.0 426.0 L 1295.0 411.0 L 1290.0 389.0 L 1290.0 281.0 Z
    M 1044.0 274.0 L 1050.0 280.0 L 1050.0 320.0 L 1047.0 324.0 L 1043.0 326.0 L 988.0 326.0 L 988.0 345.0 L 1037.0 345.0 L 1041.0 348.0 L 1042.0 386.0 L 1037.0 391.0 L 988.0 392.0 L 988.0 446.0 L 982.0 453.0 L 937.0 452.0 L 933.0 447.0 L 933.0 280.0 L 940.0 274.0 Z
    M 771.0 274.0 L 892.0 274.0 L 899.0 281.0 L 899.0 320.0 L 892.0 326.0 L 857.0 326.0 L 857.0 446.0 L 850.0 453.0 L 808.0 453.0 L 802.0 447.0 L 802.0 326.0 L 770.0 326.0 L 765.0 322.0 L 763.0 286.0 L 765.0 278.0 Z
    M 1166.0 322.0 L 1165.0 323.0 L 1161.0 323.0 L 1160.0 324.0 L 1155.0 325.0 L 1149.0 328.0 L 1145.0 332.0 L 1144.0 332.0 L 1143.0 334.0 L 1139.0 338.0 L 1138.0 341.0 L 1136.0 343.0 L 1136.0 345.0 L 1134.0 348.0 L 1134.0 350.0 L 1133.0 351.0 L 1133.0 354.0 L 1132.0 355.0 L 1132.0 371.0 L 1133.0 372.0 L 1133.0 375.0 L 1134.0 376.0 L 1134.0 378.0 L 1135.0 379.0 L 1135.0 381.0 L 1137.0 385.0 L 1139.0 387.0 L 1141.0 391.0 L 1147.0 397.0 L 1148.0 397.0 L 1150.0 399.0 L 1156.0 402.0 L 1158.0 402.0 L 1159.0 403.0 L 1162.0 403.0 L 1163.0 404.0 L 1178.0 404.0 L 1179.0 403.0 L 1184.0 402.0 L 1192.0 398.0 L 1194.0 396.0 L 1195.0 396.0 L 1199.0 392.0 L 1199.0 391.0 L 1204.0 385.0 L 1205.0 383.0 L 1205.0 381.0 L 1208.0 375.0 L 1208.0 372.0 L 1209.0 371.0 L 1209.0 356.0 L 1208.0 355.0 L 1208.0 352.0 L 1207.0 351.0 L 1206.0 346.0 L 1203.0 340.0 L 1201.0 338.0 L 1201.0 337.0 L 1194.0 330.0 L 1193.0 330.0 L 1188.0 326.0 L 1186.0 325.0 L 1184.0 325.0 L 1183.0 324.0 L 1181.0 324.0 L 1180.0 323.0 L 1176.0 323.0 L 1175.0 322.0 Z
    M 1747.0 326.0 L 1747.0 401.0 L 1766.0 401.0 L 1767.0 400.0 L 1772.0 400.0 L 1773.0 399.0 L 1778.0 398.0 L 1779.0 397.0 L 1786.0 394.0 L 1795.0 385.0 L 1795.0 384.0 L 1797.0 382.0 L 1797.0 381.0 L 1799.0 378.0 L 1799.0 376.0 L 1800.0 375.0 L 1800.0 373.0 L 1801.0 372.0 L 1801.0 354.0 L 1800.0 353.0 L 1799.0 348.0 L 1798.0 347.0 L 1797.0 344.0 L 1795.0 342.0 L 1795.0 341.0 L 1787.0 333.0 L 1786.0 333.0 L 1784.0 331.0 L 1783.0 331.0 L 1780.0 329.0 L 1778.0 329.0 L 1777.0 328.0 L 1775.0 328.0 L 1774.0 327.0 L 1771.0 327.0 L 1770.0 326.0 Z
    M 638.0 302.0 L 637.0 303.0 L 634.0 303.0 L 633.0 304.0 L 632.0 304.0 L 631.0 305.0 L 630.0 305.0 L 629.0 306.0 L 626.0 307.0 L 619.0 314.0 L 619.0 315.0 L 618.0 316.0 L 618.0 317.0 L 616.0 320.0 L 616.0 322.0 L 615.0 323.0 L 615.0 326.0 L 614.0 327.0 L 614.0 334.0 L 615.0 335.0 L 615.0 339.0 L 616.0 340.0 L 616.0 341.0 L 617.0 342.0 L 618.0 345.0 L 620.0 347.0 L 620.0 348.0 L 623.0 351.0 L 624.0 351.0 L 629.0 355.0 L 630.0 355.0 L 631.0 356.0 L 633.0 356.0 L 634.0 357.0 L 638.0 357.0 L 639.0 358.0 L 647.0 358.0 L 648.0 357.0 L 651.0 357.0 L 652.0 356.0 L 654.0 356.0 L 655.0 355.0 L 658.0 354.0 L 660.0 352.0 L 661.0 352.0 L 667.0 346.0 L 667.0 345.0 L 669.0 343.0 L 669.0 342.0 L 670.0 341.0 L 670.0 339.0 L 671.0 338.0 L 671.0 335.0 L 672.0 334.0 L 672.0 326.0 L 671.0 325.0 L 671.0 322.0 L 670.0 321.0 L 670.0 319.0 L 669.0 318.0 L 668.0 315.0 L 665.0 312.0 L 665.0 311.0 L 664.0 310.0 L 663.0 310.0 L 660.0 307.0 L 659.0 307.0 L 657.0 305.0 L 656.0 305.0 L 655.0 304.0 L 653.0 304.0 L 652.0 303.0 L 650.0 303.0 L 649.0 302.0 Z" fill="#f0181f" fill-rule="evenodd"/>
</svg>
